<?xml version="1.0" standalone="no"?>
<svg viewBox="0 0 200 200" xmlns="http://www.w3.org/2000/svg">
  <path fill="#FDFC07" d="M46.4,-78.8C60.3,-72.2,72.1,-60.3,80.2,-46.3C88.2,-32.3,92.6,-16.1,92,-0.3C91.4,15.4,85.8,30.9,77.1,43.7C68.3,56.5,56.4,66.8,43,75.1C29.6,83.5,14.8,90,0.1,89.9C-14.7,89.8,-29.4,83.1,-43.6,75.2C-57.9,67.4,-71.7,58.4,-79.7,45.6C-87.8,32.9,-90.1,16.5,-89.8,0.1C-89.6,-16.2,-86.9,-32.4,-79.1,-45.5C-71.2,-58.6,-58.3,-68.6,-44.3,-75.2C-30.3,-81.8,-15.1,-84.9,0.5,-85.8C16.2,-86.7,32.4,-85.4,46.4,-78.8Z" transform="translate(100 100)" />
</svg>
