<!--?xml version="1.0" standalone="no"?-->
              <svg id="sw-js-blob-svg" viewBox="0 0 100 100" xmlns="http://www.w3.org/2000/svg" version="1.1">
                    <defs> 
                        <linearGradient id="sw-gradient" x1="0" x2="1" y1="1" y2="0">
                            <stop id="stop1" stop-color="rgba(134, 194, 50, 0.21)" offset="0%"></stop>
                            <stop id="stop2" stop-color="rgba(253, 252, 7, 1)" offset="100%"></stop>
                        </linearGradient>
                    </defs>
                <path fill="url(#sw-gradient)" d="M16.6,-29.7C20.6,-23.3,22.3,-17.1,26.9,-11.1C31.5,-5,39.2,0.8,38.5,5.5C37.8,10.2,28.8,13.7,22.1,16.3C15.4,18.9,11,20.7,6.4,22.4C1.8,24,-3.1,25.5,-9.2,26.1C-15.3,26.7,-22.8,26.4,-28.4,22.9C-34.1,19.4,-37.9,12.7,-39.5,5.3C-41.1,-2,-40.4,-10.1,-35.1,-13.8C-29.9,-17.4,-20.1,-16.8,-13.5,-22C-6.9,-27.2,-3.4,-38.3,1.4,-40.5C6.3,-42.7,12.6,-36.1,16.6,-29.7Z" width="100%" height="100%" transform="translate(50 50)" stroke-width="0" style="transition: all 0.3s ease 0s;"></path>
              </svg>